<svg xmlns="http://www.w3.org/2000/svg" width="120" height="120" viewBox="0 0 120 120">
  <g id="Benefits" transform="translate(-651 -3072)">
    <rect id="Rectangle_173" data-name="Rectangle 173" width="120" height="120" transform="translate(651 3072)" fill="rgba(255,255,255,0)"/>
    <g id="Layer_2" data-name="Layer 2" transform="translate(670.008 3091.967)">
      <path id="Path_23369" data-name="Path 23369" d="M6,34.675V49.952a17,17,0,0,0,8.725,14.862l2.606,1.454v5.8a1.888,1.888,0,0,0,1.888,1.888H34.328a1.888,1.888,0,0,0,1.888-1.888V57.922c0-5.061-.415-6.931-3.154-9.688L28.4,43.55a6.836,6.836,0,0,0-8.555-.642l-1.888-9.442A6.024,6.024,0,0,0,6,34.675Zm8.253-.378,2.852,14.2v.661a5.383,5.383,0,0,0,0,.548,2.754,2.754,0,0,0,.227.736l.151.453a6.459,6.459,0,0,0,.434.793,2.437,2.437,0,0,0,.17.3,6.459,6.459,0,0,0,.793.982h0l4.513,4.513a1.9,1.9,0,1,0,2.682-2.682l-4.513-4.513a2.833,2.833,0,0,1,0-4,2.889,2.889,0,0,1,4,0l4.664,4.683c1.718,1.718,2.058,2.436,2.058,7.006v12.2H21.109V65.154a1.888,1.888,0,0,0-.963-1.643l-3.569-1.888a13.219,13.219,0,0,1-6.8-11.671V34.675a2.266,2.266,0,0,1,4.476-.378Zm53.689-5.665a6.005,6.005,0,0,0-5.911,4.853l-1.888,9.442a6.817,6.817,0,0,0-8.555.642l-4.664,4.683c-2.738,2.738-3.154,4.608-3.154,9.669V72.066a1.888,1.888,0,0,0,1.888,1.888H60.766a1.888,1.888,0,0,0,1.888-1.888v-5.8l2.606-1.454a17,17,0,0,0,8.725-14.862V34.675A6.062,6.062,0,0,0,67.942,28.632Zm2.266,21.321a13.219,13.219,0,0,1-6.8,11.576l-3.569,1.888a1.888,1.888,0,0,0-.963,1.643v5.118H47.547V57.922c0-4.57.34-5.288,2.058-7.006l4.664-4.683a2.889,2.889,0,0,1,4,0,2.833,2.833,0,0,1,0,4L53.76,54.749a1.9,1.9,0,1,0,2.682,2.682l4.513-4.513a8.177,8.177,0,0,0,.793-.982,3.283,3.283,0,0,0,.189-.359,5.534,5.534,0,0,0,.4-.736,4.717,4.717,0,0,0,.17-.472,3.956,3.956,0,0,1,.208-.736,5.139,5.139,0,0,0,0-.567v-.6L65.733,34.3a2.266,2.266,0,0,1,4.476.378ZM38.671,46.969a1.888,1.888,0,0,0,2.644,0L60.766,27.763a12.69,12.69,0,0,0,0-18.016,13.011,13.011,0,0,0-18.2,0l-2.568,2.474L37.425,9.747a13.011,13.011,0,0,0-18.2,0,12.69,12.69,0,0,0,0,18.072ZM21.883,12.391a9.2,9.2,0,0,1,12.9,0l3.89,3.777a1.888,1.888,0,0,0,2.644,0l3.89-3.777a9.216,9.216,0,0,1,12.9,0,8.876,8.876,0,0,1,0,12.671l-18.11,17.9-18.11-17.9a8.876,8.876,0,0,1,0-12.671Z" transform="translate(0 0)" fill="#0a66c2"/>
      <path id="Path_23370" data-name="Path 23370" d="M21.888,22.442h3.777v3.777a1.888,1.888,0,1,0,3.777,0V22.442h3.777a1.888,1.888,0,1,0,0-3.777H29.442V14.888a1.888,1.888,0,0,0-3.777,0v3.777H21.888a1.888,1.888,0,1,0,0,3.777Z" transform="translate(12.439 6.189)" fill="#0a66c2"/>
    </g>
  </g>
</svg>
