<svg xmlns="http://www.w3.org/2000/svg" width="120" height="120" viewBox="0 0 120 120">
  <g id="Fun" transform="translate(-1400 -2683)">
    <rect id="Rectangle_172" data-name="Rectangle 172" width="120" height="120" transform="translate(1400 2683)" fill="rgba(255,255,255,0)"/>
    <g id="Group_26063" data-name="Group 26063" transform="translate(1402.965 2488.445)">
      <path id="Path_23359" data-name="Path 23359" d="M365.042,241.963c0,.294-.013.586-.033.879-.01.145-.025.289-.041.433-.052.489.063-.4-.013.081a11.527,11.527,0,0,1-.44,1.786c-.043.133-.092.264-.14.4-.029.078-.209.518-.022.077-.108.256-.23.505-.356.752a11.624,11.624,0,0,1-.944,1.521c-.275.38.245-.3-.047.063-.086.107-.175.211-.264.315-.178.208-.368.407-.561.6s-.4.38-.6.561c-.1.09-.209.177-.315.264q-.238.189.048-.035-.11.083-.222.162a11.6,11.6,0,0,1-1.409.863c-.246.129-.5.245-.752.356.438-.191,0-.008-.077.022-.175.066-.352.125-.529.183a11.556,11.556,0,0,1-1.652.4c-.483.082.408-.045-.081.013-.144.017-.288.029-.433.041-.342.028-.685.034-1.027.032-.293,0-.585-.02-.877-.044-.144-.012-.288-.029-.432-.046.49.058.008,0-.078-.02a11.518,11.518,0,0,1-1.777-.461c-.132-.045-.263-.095-.394-.144-.444-.169.36.162-.074-.028-.254-.111-.5-.236-.747-.365a11.613,11.613,0,0,1-1.508-.961c.378.28.006,0-.058-.052-.106-.087-.209-.177-.312-.268-.206-.181-.4-.373-.595-.568s-.375-.4-.554-.608c-.089-.1-.175-.211-.261-.319.306.383-.068-.1-.121-.179a11.615,11.615,0,0,1-.847-1.42c-.063-.123-.122-.249-.18-.375-.036-.076-.215-.513-.034-.071-.124-.3-.229-.612-.326-.923a11.565,11.565,0,0,1-.377-1.66c.077.488,0,0-.006-.083-.015-.145-.025-.29-.035-.435-.023-.342-.026-.686-.019-1.029.005-.292.027-.583.054-.874.008-.086.077-.573.006-.083.02-.142.046-.282.072-.423a11.529,11.529,0,0,1,.482-1.769c.047-.132.1-.262.149-.391-.175.443,0,.006.034-.071.114-.252.242-.5.373-.742s.276-.478.424-.71c.074-.116.152-.229.23-.343.052-.076.423-.566.121-.179a11.675,11.675,0,0,1,1.107-1.216c.2-.191.4-.37.615-.546.063-.053.434-.338.058-.052.146-.111.3-.216.447-.32a11.609,11.609,0,0,1,1.431-.83c.124-.062.251-.119.377-.176.432-.2-.368.146.074-.028.3-.12.615-.222.928-.315.271-.081.546-.147.823-.208.139-.031.28-.056.42-.082.085-.016.569-.084.078-.02a11.747,11.747,0,0,1,1.9-.082c.291.009.581.034.871.065.489.052-.4-.063.081.013.141.022.281.049.422.077a11.537,11.537,0,0,1,1.76.5c.078.029.518.209.077.022.128.054.254.113.38.171.251.117.5.247.737.382s.474.281.7.432c.115.075.227.155.34.234.067.048.439.332.066.042a11.675,11.675,0,0,1,1.216,1.107c.191.2.37.4.547.615.053.063.337.434.052.058.083.109.162.222.242.334a11.613,11.613,0,0,1,.847,1.42c.063.124.122.249.18.375.036.076.215.513.034.071.106.259.2.524.284.789a11.55,11.55,0,0,1,.4,1.652c.082.483-.045-.408.013.081.017.144.029.289.041.433.024.292.031.586.033.879a1.841,1.841,0,0,0,3.682,0,13.446,13.446,0,1,0-26.19,4.29,13.38,13.38,0,0,0,4.26,6.128,13.867,13.867,0,0,0,7.315,2.97,13.438,13.438,0,0,0,14.614-13.388,1.841,1.841,0,1,0-3.682,0Z" transform="translate(-297.794)" fill="#0a66c2"/>
      <path id="Path_23360" data-name="Path 23360" d="M289.427,376.46q.387.247.759.514c.049.035.453.345.114.08.12.094.237.192.354.289a14.377,14.377,0,0,1,1.42,1.377c.2.226.4.461.589.7-.268-.336.044.065.08.114.09.123.176.249.262.375a14.3,14.3,0,0,1,1,1.724c.068.138.132.278.2.419.214.47-.138-.35.055.13.116.288.218.582.315.877a14.206,14.206,0,0,1,.486,1.985c.011.063.085.589.027.142.021.159.036.319.051.479.031.323.046.648.055.972,0,.168,0,.335,0,.5v9.387c0,.119,0,.178-.01.3-.024.49.077-.392-.009.085-.025.14-.064.277-.1.414-.023.081-.193.524-.008.087a4.477,4.477,0,0,1-.405.727c-.258.388.251-.291-.052.062a4.532,4.532,0,0,1-.389.389c-.343.313.317-.218-.062.052-.113.08-.233.15-.353.219s-.247.128-.374.186c.426-.2,0-.019-.087.008-.136.043-.275.073-.414.1-.474.1.4-.031-.085.009-.1.008-.2.01-.306.01H259.722c-.13,0-.166,0-.3-.01-.49-.024.392.077-.085-.009-.14-.025-.277-.064-.414-.1q-.135-.04-.267-.089.333.15.053.022a4.479,4.479,0,0,1-.712-.427c.375.266.015,0-.051-.065-.1-.093-.195-.195-.288-.3-.313-.343.218.317-.052-.062-.08-.113-.15-.233-.219-.353s-.128-.247-.186-.374c.2.442-.019-.126-.047-.224-.039-.138-.064-.279-.089-.419.085.476.014,0,.009-.09,0-.061,0-.124,0-.185v-9.025c0-.494,0-.986.033-1.48.01-.161.025-.322.041-.483.006-.063.077-.594.013-.147.045-.315.1-.627.17-.938a14.187,14.187,0,0,1,.572-1.953c.053-.146.112-.29.17-.434-.163.4.036-.071.062-.127.128-.28.269-.555.415-.826a14.286,14.286,0,0,1,1.07-1.678c.3-.412-.233.288.086-.11.1-.119.194-.235.294-.351.2-.232.407-.455.619-.673s.435-.428.661-.633c.113-.1.229-.2.345-.3.058-.05.571-.453.224-.188.284-.217.579-.418.878-.613a1.841,1.841,0,1,0-1.859-3.18,16.34,16.34,0,0,0-7.478,13.637v8.142a9.281,9.281,0,0,0,.752,4.389,6.362,6.362,0,0,0,5.629,3.337h32.749a6.411,6.411,0,0,0,5.958-4.157,10.62,10.62,0,0,0,.392-3.887v-7.848a16.115,16.115,0,0,0-7.589-13.683,1.841,1.841,0,0,0-1.859,3.18Zm25.414-2.746c0,.292-.019.581-.05.871.051-.489,0-.014-.021.076-.025.139-.059.277-.092.414a7.486,7.486,0,0,1-.25.8c-.162.444.165-.358-.028.072-.076.168-.162.33-.249.492a7.572,7.572,0,0,1-.437.7c-.265.383.248-.3-.043.063-.086.106-.177.208-.268.31a7.583,7.583,0,0,1-.584.574c-.1.091-.208.177-.315.263.382-.307-.1.059-.183.112a7.572,7.572,0,0,1-.714.412c-.123.064-.249.12-.375.177.435-.2,0-.011-.077.019a7.5,7.5,0,0,1-.808.236c-.138.033-.278.059-.417.084q-.314.049.064,0-.143.016-.287.027a7.7,7.7,0,0,1-.877.017c-.145,0-.29-.017-.435-.029-.488-.042.4.068-.079-.01a7.5,7.5,0,0,1-.826-.191c-.135-.038-.267-.083-.4-.129q-.131-.046-.261-.1.339.147.058.022a7.552,7.552,0,0,1-.73-.387c-.118-.07-.232-.146-.347-.222-.069-.046-.442-.325-.069-.036a7.6,7.6,0,0,1-1.253-1.253c.3.367.013,0-.036-.069-.078-.113-.15-.23-.222-.346a7.521,7.521,0,0,1-.387-.73c-.2-.426.142.369-.028-.072-.05-.13-.093-.263-.136-.4a7.51,7.51,0,0,1-.232-.96c-.087-.479.041.408-.01-.079-.015-.144-.022-.29-.029-.435a7.7,7.7,0,0,1,.017-.877c.006-.088.07-.573,0-.082.02-.141.048-.28.077-.42a7.5,7.5,0,0,1,.266-.946c.028-.08.208-.517.019-.077.054-.127.116-.251.177-.375a7.549,7.549,0,0,1,.412-.714c.074-.115.154-.227.234-.338-.274.38,0,.01.051-.056a7.6,7.6,0,0,1,.663-.687c.1-.093.2-.181.31-.268q.237-.19-.048.036.11-.081.224-.158a7.578,7.578,0,0,1,.828-.488c.123-.064.249-.12.375-.177-.453.2.117-.033.209-.064a7.527,7.527,0,0,1,1.093-.275c.479-.087-.408.041.079-.01.193-.02.387-.028.581-.033a7.659,7.659,0,0,1,1.018.048c-.489-.051-.014,0,.076.021.185.034.368.08.55.128s.358.106.534.167q.131.046.26.1-.339-.147-.058-.022a7.537,7.537,0,0,1,.847.459c.117.072.23.15.342.228q.245.18-.044-.042.107.085.211.173a7.6,7.6,0,0,1,.687.663c.124.133.24.274.354.416-.307-.382.059.1.112.183a7.587,7.587,0,0,1,.474.837c.038.077.217.509.037.067.07.172.129.349.186.525a7.5,7.5,0,0,1,.232.96q.049.314,0-.064.016.143.027.287c.017.194.02.389.022.583a1.841,1.841,0,0,0,3.682,0,9.48,9.48,0,0,0-3.2-7.062,9.625,9.625,0,0,0-7.839-2.183,9.386,9.386,0,0,0-7.3,12.124,9.382,9.382,0,0,0,10.593,6.367,9.454,9.454,0,0,0,7.754-9.245,1.841,1.841,0,0,0-3.682,0Z" transform="translate(-218.649 -121.514)" fill="#0a66c2"/>
      <path id="Path_23361" data-name="Path 23361" d="M98.808,382.724c.128.082.254.166.379.252.052.036.451.344.112.076.237.187.461.392.679.6s.421.435.618.664c.041.048.347.448.087.1.121.162.233.33.344.5.167.255.314.522.455.792.071.136.135.274.2.413-.183-.4.024.067.048.129a9.216,9.216,0,0,1,.28.886c.041.151.074.3.107.457.018.081.121.748.062.29a32.229,32.229,0,0,1,.067,4.082v3.272q0,.145-.014.29.055-.38-.007-.07c-.02.091-.189.516,0,.083a2.906,2.906,0,0,1-.2.359c-.239.386.255-.281-.05.054-.062.068-.409.35-.037.069a2.942,2.942,0,0,1-.349.215c-.4.222.367-.12-.071.023-.093.031-.548.1-.065.044a2.657,2.657,0,0,1-.293.014H84.785a1.841,1.841,0,0,0,0,3.682h15.443a5.764,5.764,0,0,0,3.679-.881,4.846,4.846,0,0,0,2.022-3.891v-5.91a11.182,11.182,0,0,0-5.26-9.775,1.841,1.841,0,0,0-1.859,3.179Zm-68.6-9.01c0,.292-.019.581-.05.871.051-.489,0-.014-.021.076-.025.139-.059.277-.092.414a7.482,7.482,0,0,1-.25.8c-.162.444.165-.358-.028.072-.076.168-.162.33-.249.492a7.567,7.567,0,0,1-.437.7c-.265.383.249-.3-.043.063-.086.106-.177.208-.268.31a7.578,7.578,0,0,1-.584.574c-.1.091-.208.177-.315.263.382-.307-.1.059-.183.112a7.572,7.572,0,0,1-.714.412c-.123.064-.249.12-.375.177.435-.2,0-.011-.077.019a7.491,7.491,0,0,1-.807.236c-.138.033-.278.059-.417.084q-.314.049.064,0-.143.016-.287.027a7.7,7.7,0,0,1-.877.017c-.145,0-.29-.017-.435-.029-.488-.042.4.068-.079-.01a7.5,7.5,0,0,1-.825-.191c-.135-.038-.267-.083-.4-.129q-.131-.046-.261-.1.339.147.058.022a7.54,7.54,0,0,1-.73-.387c-.118-.07-.232-.146-.346-.222-.069-.046-.443-.325-.069-.036a7.606,7.606,0,0,1-1.253-1.253c.3.367.013,0-.036-.069-.078-.113-.15-.23-.222-.346a7.509,7.509,0,0,1-.387-.73c-.2-.426.142.369-.028-.072-.05-.13-.093-.263-.136-.4a7.523,7.523,0,0,1-.232-.96c-.087-.479.041.408-.01-.079-.015-.144-.022-.29-.029-.435a7.67,7.67,0,0,1,.017-.877c.006-.088.07-.573,0-.082.02-.141.048-.28.077-.42a7.5,7.5,0,0,1,.266-.946c.028-.08.208-.517.019-.077.054-.127.116-.251.177-.375a7.587,7.587,0,0,1,.412-.714c.074-.115.154-.227.234-.338-.274.38,0,.01.051-.056a7.592,7.592,0,0,1,.663-.687c.1-.093.2-.181.31-.268q.237-.19-.049.036.11-.081.224-.158a7.577,7.577,0,0,1,.828-.488c.123-.064.249-.12.375-.177-.453.2.117-.033.209-.064a7.522,7.522,0,0,1,1.093-.275c.478-.087-.408.041.079-.01.193-.02.387-.028.581-.033a7.659,7.659,0,0,1,1.018.048c-.489-.051-.014,0,.076.021.185.034.368.08.55.128s.358.106.534.167q.131.046.261.1-.339-.147-.058-.022a7.507,7.507,0,0,1,.847.459c.117.072.23.15.342.228q.245.18-.044-.042.107.085.211.173a7.6,7.6,0,0,1,.688.663c.124.133.24.274.354.416-.307-.382.059.1.112.183a7.57,7.57,0,0,1,.473.837c.038.077.217.509.037.067.07.172.129.349.186.525a7.526,7.526,0,0,1,.232.96q.049.314,0-.064.016.143.027.287c.016.194.02.389.022.583a1.841,1.841,0,0,0,3.682,0,9.481,9.481,0,0,0-3.2-7.062,9.626,9.626,0,0,0-7.839-2.183,9.386,9.386,0,0,0-7.3,12.124,9.382,9.382,0,0,0,10.593,6.367,9.454,9.454,0,0,0,7.754-9.245,1.841,1.841,0,0,0-3.682,0Zm-.025,22.606H13.876c-.154,0-.6-.068-.153.01a2.88,2.88,0,0,1-.4-.111c.427.14.039.008-.059-.046s-.423-.324-.07-.03c-.082-.068-.46-.514-.169-.129a2.928,2.928,0,0,1-.215-.349c-.222-.4.12.367-.023-.071-.031-.093-.1-.548-.044-.065a2.827,2.827,0,0,1-.014-.292v-6.226c0-.325.019-.649.05-.973.051-.532-.064.379.022-.144.026-.156.06-.311.093-.465a9.248,9.248,0,0,1,.255-.9c.048-.148.1-.293.16-.438-.158.41.092-.193.127-.266.134-.276.288-.542.448-.8.08-.13.166-.257.253-.383.034-.05.342-.455.077-.117a9.374,9.374,0,0,1,1.388-1.407c.39-.325-.3.216.112-.083.124-.09.251-.174.379-.257a1.841,1.841,0,1,0-1.859-3.179,11.362,11.362,0,0,0-4.891,6.859,20.686,20.686,0,0,0-.3,4.794v3.975A4.825,4.825,0,0,0,13.861,400H30.185a1.841,1.841,0,0,0,0-3.682Z" transform="translate(0 -121.514)" fill="#0a66c2"/>
    </g>
  </g>
</svg>
