<svg xmlns="http://www.w3.org/2000/svg" width="120" height="120" viewBox="0 0 120 120">
  <g id="Growth" transform="translate(-386 -2683)">
    <rect id="Rectangle_170" data-name="Rectangle 170" width="120" height="120" transform="translate(386 2683)" fill="rgba(255,255,255,0)"/>
    <path id="Path_23396" data-name="Path 23396" d="M87.9,2.5A4.225,4.225,0,0,0,84.07-.082h-20.8a4.161,4.161,0,1,0,0,8.321H74.043L50.785,31.5,41.9,21.648a4.161,4.161,0,0,0-5.908,0L11.028,46.612a4.178,4.178,0,1,0,5.908,5.908l22.01-22.051,8.885,9.849a4.161,4.161,0,0,0,5.908,0L79.91,14.105V24.881a4.161,4.161,0,1,0,8.321,0V4.078A4.161,4.161,0,0,0,87.9,2.5Z" transform="translate(397.202 2716.082)" fill="#0a66c2"/>
  </g>
</svg>
