<svg xmlns="http://www.w3.org/2000/svg" width="120" height="120" viewBox="0 0 120 120">
  <g id="Salary" transform="translate(-900 -2683)">
    <rect id="Rectangle_171" data-name="Rectangle 171" width="120" height="120" transform="translate(900 2683)" fill="rgba(255,255,255,0)"/>
    <path id="Path_23372" data-name="Path 23372" d="M96.778,45.884a1.346,1.346,0,0,0-.532-1.088L88.7,39.073V31.059a1.346,1.346,0,0,0-1.346-1.346H76.363L60.5,17.677a6.818,6.818,0,0,0-8.214,0L36.415,29.713H25.424a1.346,1.346,0,0,0-1.346,1.346v8.013L16.533,44.8A1.346,1.346,0,0,0,16,45.866h0s0,0,0,0v.012h0V88.95A1.346,1.346,0,0,0,17.346,90.3H95.432a1.346,1.346,0,0,0,1.346-1.346V45.884ZM88.7,42.452l2.729,2.07H88.7Zm0,4.763h2.591L88.7,49.1ZM53.909,19.822a4.115,4.115,0,0,1,4.959,0l13.039,9.891H40.87ZM26.77,32.406H86.008V35.1H26.77Zm0,5.385H86.008v2.693H26.77Zm0,8.078V43.176H86.008v7.882L83.08,53.187a1.344,1.344,0,0,0-1.111-.587,5.387,5.387,0,0,1-5.385-5.385,1.346,1.346,0,0,0-1.346-1.346h-37.7a1.346,1.346,0,0,0-1.346,1.346A5.391,5.391,0,0,1,30.809,52.6a1.344,1.344,0,0,0-1.111.587L26.77,51.058Zm42.676,10.18a13.417,13.417,0,0,0-4.987-7.487H74a8.068,8.068,0,0,0,6.4,6.573L69.28,63.223a13.516,13.516,0,0,0,.167-7.175Zm-8.811,3.594a4.006,4.006,0,0,0-1.554-.311H57.735V55.293h.793a1.911,1.911,0,0,1,1.819,1.351,1.884,1.884,0,0,1,.081.549v.793a1.346,1.346,0,1,0,2.693,0v-.793a4.562,4.562,0,0,0-.2-1.331,4.62,4.62,0,0,0-4.4-3.261h-.793V51.254a1.346,1.346,0,1,0-2.693,0V52.6H54.25a4.59,4.59,0,0,0-4.593,4.593v.793A4.044,4.044,0,0,0,53.7,62.024h1.346v2.693h-2.61a1.9,1.9,0,0,1-.082-.554v-.793a1.346,1.346,0,1,0-2.693,0v.793a4.65,4.65,0,0,0,.036.554H47.062a10.77,10.77,0,1,1,18.655,0H63.084a4.651,4.651,0,0,0,.036-.554v-.793A4.022,4.022,0,0,0,60.636,59.643Zm-.208,3.728v.793a1.908,1.908,0,0,1-.082.554h-2.61V62.024h1.346a1.347,1.347,0,0,1,1.346,1.346Zm-5.385-8.078v4.039H53.7a1.348,1.348,0,0,1-1.346-1.346v-.793a1.9,1.9,0,0,1,1.9-1.9ZM43.5,63.223,32.383,55.14a8.1,8.1,0,0,0,6.393-6.579H48.3a13.606,13.606,0,0,0-2.66,2.665,13.319,13.319,0,0,0-2.174,4.323,13.518,13.518,0,0,0,.031,7.675ZM24.078,42.452v2.07H21.349Zm0,4.763V49.1l-2.591-1.885Zm-5.385,1.3L41.767,65.294,18.693,85.939ZM20.87,87.6,43.44,67.41h25.9L91.908,87.6ZM94.085,48.763V85.939L71.011,65.294,94.085,48.513Z" transform="translate(904 2689.699)" fill="#0a66c2"/>
  </g>
</svg>
