<svg xmlns="http://www.w3.org/2000/svg" width="144.359" height="89.865" viewBox="0 0 144.359 89.865">
  <g id="Group_26008" data-name="Group 26008" transform="translate(22260 17350.787)">
    <path id="Path_23316" data-name="Path 23316" d="M96.86,29.221a22.489,22.489,0,0,1-9,17.231,14.915,14.915,0,0,1-9.278,3.165c-.059,0-.237.02-.435.02a12.817,12.817,0,0,1-1.662-.138,17.83,17.83,0,0,1-9.1-4.154C62.457,46.847,45.107,53,37.649,66.175c-3.877,6.805-4.55,14.58-2.018,23.107a1.966,1.966,0,0,1-1.9,2.532,1.988,1.988,0,0,1-1.9-1.4c-2.849-9.595-2.057-18.418,2.374-26.193a40.543,40.543,0,0,1,10.9-12.068c.1-.752.02-2.354-1.682-4.332a9.711,9.711,0,0,0-2.77-2.2,17.662,17.662,0,0,1-5.836,5.7,10.884,10.884,0,0,1-2.018.969,15.04,15.04,0,0,1-5.757,1.167,15.393,15.393,0,0,1-3.9-.514A22.566,22.566,0,0,1,8.113,40.457,63.327,63.327,0,0,1,2,16.935v-.119a1.918,1.918,0,0,1,.633-1.444.829.829,0,0,1,.317-.218.6.6,0,0,1,.2-.138c.04-.02.059-.02.1-.04a1.482,1.482,0,0,1,.317-.1,1.8,1.8,0,0,1,.969.04,1.574,1.574,0,0,1,.495.218,1.2,1.2,0,0,1,.2.138l.059.059A26.948,26.948,0,0,0,17.767,20a29.84,29.84,0,0,0,4.847.079c.376,0,.811-.02,1.266-.02A27.942,27.942,0,0,1,36.7,23.246a13.193,13.193,0,0,1,6.548,8.982,17.879,17.879,0,0,1,.257,2.611,18.755,18.755,0,0,1-1.128,7.221,14.037,14.037,0,0,1,4.036,3.165,11.129,11.129,0,0,1,2.394,4.332,72.364,72.364,0,0,1,15.629-7.438,18.882,18.882,0,0,1-2.354-4.412,19.542,19.542,0,0,1-.752-2.394A13.3,13.3,0,0,1,63.9,24.295a27.555,27.555,0,0,1,11.692-8.309,30.142,30.142,0,0,0,4.431-1.959,26.638,26.638,0,0,0,9.654-9.12c.079-.138.158-.257.237-.376a1.716,1.716,0,0,1,1.207-.752,2.952,2.952,0,0,1,.415-.04,2.1,2.1,0,0,1,.791.178c.1.059.2.119.277.178a.775.775,0,0,1,.2.158c.02.02.059.04.079.079a2.034,2.034,0,0,1,.534.989,62.94,62.94,0,0,1,3.442,23.9Z" transform="translate(-22262 -17354.527)" fill="#09446e"/>
    <text id="Company_Logo" data-name="Company
Logo" transform="translate(-22210.641 -17283.922)" font-size="19" font-family="SegoeUI, Segoe UI" letter-spacing="0.05em"><tspan x="0" y="0">COMPANY</tspan><tspan font-family="SegoeUI-Bold, Segoe UI" font-weight="700"><tspan x="0" y="18">LOGO</tspan></tspan></text>
  </g>
</svg>
