<svg xmlns="http://www.w3.org/2000/svg" xmlns:xlink="http://www.w3.org/1999/xlink" width="160" height="160" viewBox="0 0 160 160">
  <defs>
    <filter id="Rectangle_95" x="0" y="0" width="160" height="160" filterUnits="userSpaceOnUse">
      <feOffset dy="3" input="SourceAlpha"/>
      <feGaussianBlur stdDeviation="5" result="blur"/>
      <feFlood flood-opacity="0.161"/>
      <feComposite operator="in" in2="blur"/>
      <feComposite in="SourceGraphic"/>
    </filter>
  </defs>
  <g id="Group_26091" data-name="Group 26091" transform="translate(-1375 -2052)">
    <g transform="matrix(1, 0, 0, 1, 1375, 2052)" filter="url(#Rectangle_95)">
      <rect id="Rectangle_95-2" data-name="Rectangle 95" width="130" height="130" rx="15" transform="translate(15 12)" fill="#0a66c2"/>
    </g>
    <path id="Path_23391" data-name="Path 23391" d="M14.416,39.757a2.6,2.6,0,1,0,2.6,2.6A2.6,2.6,0,0,0,14.416,39.757ZM24.831,2C14.416,2,4,5.567,4,12.416V43.662c0,6.848,10.416,10.416,20.831,10.416s20.831-3.567,20.831-10.416V12.416C45.662,5.567,35.247,2,24.831,2ZM40.455,43.662c0,1.849-5.937,5.208-15.623,5.208S9.208,45.511,9.208,43.662V35.148a34.267,34.267,0,0,0,15.623,3.307,34.267,34.267,0,0,0,15.623-3.307Zm0-15.623c0,1.849-5.937,5.208-15.623,5.208S9.208,29.888,9.208,28.039V19.524a34.267,34.267,0,0,0,15.623,3.307,34.267,34.267,0,0,0,15.623-3.307ZM24.831,17.623c-9.687,0-15.623-3.359-15.623-5.208s5.937-5.208,15.623-5.208,15.623,3.359,15.623,5.208S34.518,17.623,24.831,17.623Zm-10.416,6.51a2.6,2.6,0,1,0,2.6,2.6A2.6,2.6,0,0,0,14.416,24.133Z" transform="translate(1429.678 2101.098)" fill="#fff"/>
  </g>
</svg>
