<svg xmlns="http://www.w3.org/2000/svg" xmlns:xlink="http://www.w3.org/1999/xlink" width="160" height="160" viewBox="0 0 160 160">
  <defs>
    <filter id="Rectangle_153" x="0" y="0" width="160" height="160" filterUnits="userSpaceOnUse">
      <feOffset dy="3" input="SourceAlpha"/>
      <feGaussianBlur stdDeviation="5" result="blur"/>
      <feFlood flood-opacity="0.161"/>
      <feComposite operator="in" in2="blur"/>
      <feComposite in="SourceGraphic"/>
    </filter>
  </defs>
  <g id="Group_26183" data-name="Group 26183" transform="translate(-1474 -2662)">
    <g transform="matrix(1, 0, 0, 1, 1474, 2662)" filter="url(#Rectangle_153)">
      <rect id="Rectangle_153-2" data-name="Rectangle 153" width="130" height="130" rx="15" transform="translate(15 12)" fill="#0a66c2"/>
    </g>
    <path id="Path_23357" data-name="Path 23357" d="M117.358,48.513l-6.1-2.785V28.076c0-.007,0-.013,0-.02V21.323c0-.007,0-.013,0-.02V18.693a18.422,18.422,0,0,0-5.567-13.226,19.043,19.043,0,0,0-32.4,13.226V21.3c0,.007,0,.013,0,.02v6.733c0,.007,0,.013,0,.02V45.728l-6.1,2.785a14.126,14.126,0,0,0-8.24,12.821V85.318a1.268,1.268,0,0,0,1.268,1.268H124.33a1.268,1.268,0,0,0,1.268-1.268V61.334A14.126,14.126,0,0,0,117.358,48.513ZM94.98,33.484a2.53,2.53,0,0,0,2-.986c.136,0,.271.008.407.008a12.8,12.8,0,0,0,2.36-.22,9.049,9.049,0,0,1-16.641-4.929v-7.3A21,21,0,0,0,89.289,18.8a21.075,21.075,0,0,0,6.277-3.652,12.644,12.644,0,0,0,2.473,2.669,12.831,12.831,0,0,0,3.389,1.973c.022.317,0,.853-.041,1.9-.051,1.2-.128,3.014-.162,5.793a8.967,8.967,0,0,1-.21,1.823c-.262.1-.529.193-.8.273a9.985,9.985,0,0,1-2.893.4,2.537,2.537,0,1,0-2.34,3.516Zm-7.7,4.383a11.525,11.525,0,0,0,9.947-.091,14.016,14.016,0,0,0,3.789,5.4c0,.013,0,.026,0,.04v.125a8.951,8.951,0,1,1-17.9.184,14.044,14.044,0,0,0,4.167-5.662ZM99.422,36.38a11.7,11.7,0,0,0,3.423-4.519h4.607a3.787,3.787,0,0,0,1.268-.218V44.57l-3.176-1.449a11.507,11.507,0,0,1-6.122-6.741Zm8.03-7.055h-3.858a11.5,11.5,0,0,0,.168-1.817c.034-2.741.11-4.532.16-5.717.031-.732.054-1.285.051-1.736h3.479a1.269,1.269,0,0,1,1.268,1.259v6.753a1.269,1.269,0,0,1-1.268,1.259ZM92.274,2.536a16.479,16.479,0,0,1,11.635,4.74,15.905,15.905,0,0,1,4.779,10.45,3.787,3.787,0,0,0-1.238-.208h-4.845a10.22,10.22,0,0,1-5.62-4.933,1.268,1.268,0,0,0-2.018-.324,18.5,18.5,0,0,1-6.553,4.154A18.446,18.446,0,0,1,82.5,17.541a1.272,1.272,0,0,0-.238-.023H77.1a3.788,3.788,0,0,0-1.238.208A16.345,16.345,0,0,1,92.274,2.536ZM75.83,21.314A1.269,1.269,0,0,1,77.1,20.055h3.477v7.3a11.611,11.611,0,0,0,.171,1.969H77.1a1.269,1.269,0,0,1-1.268-1.259Zm0,10.33a3.787,3.787,0,0,0,1.268.218h4.388a11.656,11.656,0,0,0,3.592,4.658,11.526,11.526,0,0,1-6.073,6.6L75.83,44.57ZM123.062,84.05h-9.9l.005-7.331a14.525,14.525,0,0,0-.382-16.25,1.268,1.268,0,0,0-2.084,1.447,12.051,12.051,0,0,1-.011,13.906,4.932,4.932,0,0,1-2.892,2.091,1.268,1.268,0,0,0,.487,2.49,6.164,6.164,0,0,0,2.343-1l0,4.65H73.928l0-4.65a6.164,6.164,0,0,0,2.343,1,1.268,1.268,0,1,0,.487-2.489,4.932,4.932,0,0,1-2.892-2.091,12.051,12.051,0,0,1-.011-13.906,1.268,1.268,0,1,0-2.084-1.447,14.524,14.524,0,0,0-.382,16.25l.005,7.331h-9.9V61.334a11.583,11.583,0,0,1,6.757-10.513l11.815-5.392q.332-.152.654-.319a11.487,11.487,0,0,0,22.733-.211q.509.285,1.046.53l11.814,5.392a11.583,11.583,0,0,1,6.757,10.513Z" transform="translate(1462.051 2696.002)" fill="#fff"/>
  </g>
</svg>
