<svg xmlns="http://www.w3.org/2000/svg" xmlns:xlink="http://www.w3.org/1999/xlink" width="160" height="160" viewBox="0 0 160 160">
  <defs>
    <filter id="Rectangle_151" x="0" y="0" width="160" height="160" filterUnits="userSpaceOnUse">
      <feOffset dy="3" input="SourceAlpha"/>
      <feGaussianBlur stdDeviation="5" result="blur"/>
      <feFlood flood-opacity="0.161"/>
      <feComposite operator="in" in2="blur"/>
      <feComposite in="SourceGraphic"/>
    </filter>
  </defs>
  <g id="Group_26181" data-name="Group 26181" transform="translate(-287 -2662)">
    <g transform="matrix(1, 0, 0, 1, 287, 2662)" filter="url(#Rectangle_151)">
      <rect id="Rectangle_151-2" data-name="Rectangle 151" width="130" height="130" rx="15" transform="translate(15 12)" fill="#0a66c2"/>
    </g>
    <g id="Business_Model" data-name="Business Model" transform="translate(327 2700)">
      <path id="Path_23345" data-name="Path 23345" d="M76.97,2H3.271A1.271,1.271,0,0,0,2,3.271V8.353A1.271,1.271,0,0,0,3.271,9.624H4.541V56.639A1.271,1.271,0,0,0,5.812,57.91H38.85v7.8a5.083,5.083,0,1,0,2.541,0v-7.8H74.429A1.271,1.271,0,0,0,75.7,56.639V9.624H76.97a1.271,1.271,0,0,0,1.271-1.271V3.271A1.271,1.271,0,0,0,76.97,2ZM42.662,70.617a2.541,2.541,0,1,1-2.541-2.541A2.541,2.541,0,0,1,42.662,70.617Zm30.5-15.248H7.083V9.624H73.158ZM75.7,7.083H4.541V4.541H75.7Z" transform="translate(0)" fill="#fff"/>
      <path id="Path_23346" data-name="Path 23346" d="M15.088,47.579A5.083,5.083,0,0,0,20.17,42.5a5.022,5.022,0,0,0-.508-2.16l7.714-6.421a5.014,5.014,0,0,0,6.771-.8l6.469,3.235a5.083,5.083,0,1,0,9.329-1.5l8.32-8.32a5.015,5.015,0,0,0,2.566.72,5.083,5.083,0,1,0-5.083-5.083,5.015,5.015,0,0,0,.72,2.566l-8.32,8.32a4.982,4.982,0,0,0-6.378,1.036L35.3,30.852a5.083,5.083,0,1,0-9.547,1.1l-7.714,6.421a5.083,5.083,0,1,0-2.954,9.2ZM60.832,19.624a2.541,2.541,0,1,1-1.794,4.339h0a2.541,2.541,0,0,1,1.794-4.339ZM45.584,34.872a2.534,2.534,0,0,1,1.794.743h0a2.541,2.541,0,1,1-1.794-.743ZM30.336,27.248a2.541,2.541,0,1,1-2.541,2.541A2.541,2.541,0,0,1,30.336,27.248ZM15.088,39.955A2.541,2.541,0,1,1,12.546,42.5,2.541,2.541,0,0,1,15.088,39.955ZM11.276,14.541H21.441a1.271,1.271,0,1,0,0-2.541H11.276a1.271,1.271,0,1,0,0,2.541Zm0,5.083H21.441a1.271,1.271,0,1,0,0-2.541H11.276a1.271,1.271,0,1,0,0,2.541Zm0,5.083H21.441a1.271,1.271,0,1,0,0-2.541H11.276a1.271,1.271,0,1,0,0,2.541Z" transform="translate(2.161 2.707)" fill="#fff"/>
    </g>
  </g>
</svg>
