<svg xmlns="http://www.w3.org/2000/svg" xmlns:xlink="http://www.w3.org/1999/xlink" width="128" height="128" viewBox="0 0 128 128">
  <defs>
    <filter id="Rectangle_95" x="0" y="0" width="128" height="128" filterUnits="userSpaceOnUse">
      <feOffset dy="3" input="SourceAlpha"/>
      <feGaussianBlur stdDeviation="5" result="blur"/>
      <feFlood flood-opacity="0.161"/>
      <feComposite operator="in" in2="blur"/>
      <feComposite in="SourceGraphic"/>
    </filter>
  </defs>
  <g id="Group_25987" data-name="Group 25987" transform="translate(14.668 12)">
    <g transform="matrix(1, 0, 0, 1, -14.67, -12)" filter="url(#Rectangle_95)">
      <rect id="Rectangle_95-2" data-name="Rectangle 95" width="98" height="98" rx="15" transform="translate(15 12)" fill="#fff"/>
    </g>
    <g id="Group_25982" data-name="Group 25982" transform="translate(20 21.282)">
      <path id="Path_23333" data-name="Path 23333" d="M38.952,103.4a27.037,27.037,0,0,0,17.018,7.1V96.8a13.409,13.409,0,0,1-7.351-3.1Zm15.744-5.5v11.227a25.751,25.751,0,0,1-13.88-5.8l7.912-7.944A14.61,14.61,0,0,0,54.7,97.906Zm10.148-3.355,6.386,12.143A27.168,27.168,0,0,0,84.2,87.122H70.254A13.5,13.5,0,0,1,64.844,94.551ZM82.7,88.4a25.532,25.532,0,0,1-3.88,9.371,26.186,26.186,0,0,1-7.1,7.109l-5.233-9.949a14.789,14.789,0,0,0,4.7-6.532Zm-35.434,3a12.85,12.85,0,0,1-.253-15.722A12.956,12.956,0,0,1,53.5,71.1l.449-.138V55.769l-.729.107A27.783,27.783,0,0,0,29.5,83.131c0,.082,0,.162,0,.244a27.739,27.739,0,0,0,7.112,18.569l.45.5,10.556-10.6Zm-10.147,9.187a26.467,26.467,0,0,1-6.342-17.21c0-.075,0-.148,0-.228a26.513,26.513,0,0,1,21.9-25.893V70.026a14.254,14.254,0,0,0-6.69,4.887,14.126,14.126,0,0,0-.07,16.83Zm25.148-5.358a12.713,12.713,0,0,1-3.7.934l-.576.056v14.955l.668-.032a27.559,27.559,0,0,0,10.508-2.621l.6-.284L62.8,95Zm-3,14.6V97.362a13.985,13.985,0,0,0,2.952-.744l5.8,11.026A26.26,26.26,0,0,1,59.261,109.827Z" transform="translate(-29.5 -53.562)" stroke="#000" stroke-width="0.5"/>
      <path id="Path_23334" data-name="Path 23334" d="M183.911,197.785a10.9,10.9,0,1,0-10.9,10.9A10.914,10.914,0,0,0,183.911,197.785Zm-10.9,9.627a9.627,9.627,0,1,1,9.627-9.627A9.638,9.638,0,0,1,173.009,207.413Z" transform="translate(-145.212 -167.972)" stroke="#000" stroke-width="0.5"/>
      <path id="Path_23335" data-name="Path 23335" d="M227.982,67.652c-1.459-.428-1.743-.8-1.8-1.43a1.662,1.662,0,0,1,1.286-1.82c.041-.008.082-.015.123-.019a1.425,1.425,0,0,1,1.132.36,1.563,1.563,0,0,1,.526,1.173V66l1.274,0v-.081a2.838,2.838,0,0,0-.955-2.13,2.745,2.745,0,0,0-1.131-.6v-.861h-1.274v.843a2.933,2.933,0,0,0-2.251,3.169c.133,1.487,1.179,2.09,2.709,2.54,1.48.434,1.788.933,1.807,1.6a1.591,1.591,0,0,1-1.116,1.61,1.854,1.854,0,0,1-.294.062,1.43,1.43,0,0,1-1.138-.356,1.563,1.563,0,0,1-.53-1.173h-1.274a2.837,2.837,0,0,0,.963,2.129,2.746,2.746,0,0,0,1.125.6V74.2h1.274v-.841c.08-.017.159-.037.238-.061a2.886,2.886,0,0,0,2.026-2.866C230.655,68.662,229.223,68.016,227.982,67.652Zm18.194-22.869A29.6,29.6,0,0,0,227.8,38.45h-1.327V54.843c.1-.009.192-.019.289-.025q.092-.008.183-.012c.058-.005.118-.008.178-.011q.336-.018.677-.017a13.484,13.484,0,0,1,13.482,13.251c0,.077,0,.155,0,.234,0,.113,0,.224-.005.336,0,.074,0,.147-.007.222,0,.044,0,.089-.005.133s0,.057-.005.086c0,.06-.007.118-.011.176s-.007.094-.011.141h16.382l-.012-1.349a29.612,29.612,0,0,0-8.859-20.951q-.771-.762-1.586-1.46Zm1.684,3.18a28.346,28.346,0,0,1,8.481,20.056v.064H242.56c0-.025,0-.05,0-.074A14.825,14.825,0,0,0,227.8,53.5h-.052V39.724h.052a28.334,28.334,0,0,1,17.688,6.141l.989.82Q247.187,47.3,247.86,47.962Z" transform="translate(-200.006 -38.45)" stroke="#000" stroke-width="0.5"/>
    </g>
  </g>
</svg>
