<svg xmlns="http://www.w3.org/2000/svg" width="144.946" height="52.852" viewBox="0 0 144.946 52.852">
  <g id="Group_5" data-name="Group 5" transform="translate(23558 23074)" style="isolation: isolate">
    <g id="Group_3" data-name="Group 3" transform="translate(-23558 -23074)">
      <path id="Path_1" data-name="Path 1" d="M15.239,3.37c.3.027.593.044.88.044a6.554,6.554,0,0,1,.883.04,14.953,14.953,0,0,1,3.3.533,6.4,6.4,0,0,1,2.848,1.685,6.846,6.846,0,0,1,1.658,2.5,10.675,10.675,0,0,1,.674,2.953,5.458,5.458,0,0,0,.02.573,5.427,5.427,0,0,1,.02.573A9.263,9.263,0,0,1,24.1,17.575a7.113,7.113,0,0,1-4.527,2.97l7.338,12.243H19.952L13.483,21.235h-7.3V32.787H0V3.37ZM13.766,8.615H6.185v7.416h7.581a.361.361,0,0,0,.162.04h.165a10.365,10.365,0,0,0,3.583-.593q1.618-.593,1.578-3.135c0-1.746-.566-2.8-1.685-3.155a12.674,12.674,0,0,0-3.789-.533Z" transform="translate(0 -2.234)" fill="#0a66c2"/>
      <path id="Path_2" data-name="Path 2" d="M230.881,6.924c-.044-.138-.1-.26-.142-.394h-7.23a26.294,26.294,0,0,1,1.5,4.382c.165.708.293,1.439.391,2.191a17.862,17.862,0,0,1,.142,2.231,18.244,18.244,0,0,1-.142,2.275c-.1.752-.226,1.483-.391,2.191a8.181,8.181,0,0,1-1.473,3.276,6.128,6.128,0,0,1-2.949,2.049,8.447,8.447,0,0,1-1.476.371,10.5,10.5,0,0,1-1.52.118h-.037c-.519,0-32.158-.04-32.677-.121h.067l.6-.644L201.659,6.384V1.136H176.83V6.381h16.8l-16.8,18.968v5.2h39.044c.479.034.957.057,1.436.057a27.918,27.918,0,0,0,2.828-.145,19.021,19.021,0,0,0,2.7-.472,11.535,11.535,0,0,0,5.491-2.8,11.879,11.879,0,0,0,3.115-5.346,19.717,19.717,0,0,0,.654-3.2,28.782,28.782,0,0,0,.206-3.442,32.488,32.488,0,0,0-.226-3.276,35.15,35.15,0,0,0-1.193-5.006Zm23.646,10.544a7.1,7.1,0,0,0,4.527-3.014,9.505,9.505,0,0,0,1.412-5.393,5.649,5.649,0,0,0-.02-.583,5.543,5.543,0,0,1-.02-.58,10.822,10.822,0,0,0-.674-2.993,7,7,0,0,0-1.662-2.531,6.385,6.385,0,0,0-2.845-1.7,15.024,15.024,0,0,0-3.3-.539Q251.493.1,251.065.1a6.008,6.008,0,0,1-.88-.044H219.359C218.716,0,218.068,0,217.435,0a20.754,20.754,0,0,0-2.623.165,24.206,24.206,0,0,0-2.531.455,11.724,11.724,0,0,0-5.427,2.889,12.863,12.863,0,0,0-3.145,5.255V8.8a16.351,16.351,0,0,0-.654,3.094,28.19,28.19,0,0,0-.212,3.428,25.281,25.281,0,0,0,.226,3.4,40.867,40.867,0,0,0,1.112,4.284c.047.158.115.29.165.442l7.463.2a22.13,22.13,0,0,1-1.716-3.863c-.162-.708-.293-1.439-.388-2.191a17.629,17.629,0,0,1-.145-2.275,20.819,20.819,0,0,1,.125-2.231,15.741,15.741,0,0,1,.408-2.231v.04a9.634,9.634,0,0,1,1.517-3.28,5.872,5.872,0,0,1,2.909-2.046A8.373,8.373,0,0,1,216,5.208c.3-.047.6-.051.9-.071a9.01,9.01,0,0,1,.964-.1h31.6s4.52-.2,4.632,2.976a6.214,6.214,0,0,1,.1,1.143q.04,2.572-1.578,3.179a10.227,10.227,0,0,1-3.593.6h-.162a.361.361,0,0,1-.165-.04h-6.138v.02h-7.611V29.892h6.185V18.175h7.291l6.472,11.717h6.967Z" transform="translate(-117.224 0)" fill="#0a66c2"/>
      <path id="Path_7" data-name="Path 7" d="M94.805,9.228l9.56,23.559h6.5L98.328,3.37H91.775L79.36,32.787H85.4Z" transform="translate(-52.609 -2.234)" fill="#0a66c2"/>
    </g>
    <g id="Group_4" data-name="Group 4" transform="translate(-23557.471 -23053.912)">
      <path id="Path_3" data-name="Path 3" d="M5.944,117.138a3.853,3.853,0,0,0-.93,2.491l8.427-.02v2.521H4.993a6.206,6.206,0,0,0,.172,1.473,2.963,2.963,0,0,0,.7,1.291,1.925,1.925,0,0,0,1.1.674,6.655,6.655,0,0,0,1.3.128h.192l5-.02V128.2H8.3a12.337,12.337,0,0,1-2.36-.222,4.955,4.955,0,0,1-2.161-1.038A5.272,5.272,0,0,1,2.1,124.527a9.883,9.883,0,0,1-.522-2.916c0-.212-.017-.421,0-.624s.017-.4.03-.607a7.589,7.589,0,0,1,1.864-5.056A6.7,6.7,0,0,1,8.4,113.71l5.056-.02v2.521H8.455A3.459,3.459,0,0,0,5.944,117.138Z" transform="translate(-1.568 -95.454)" fill="#92278f"/>
      <path id="Path_4" data-name="Path 4" d="M138.737,113.77a6.83,6.83,0,0,1,4.945,1.635,7.583,7.583,0,0,1,1.854,5.056c0,.2.024.4.034.607s0,.411,0,.624a9.776,9.776,0,0,1-.526,2.916,5.248,5.248,0,0,1-1.685,2.413,4.8,4.8,0,0,1-2.127,1.028,12.471,12.471,0,0,1-2.393.222H132.1V113.777Zm-.061,2.521h-3.529v9.438h3.529a.165.165,0,0,0,.091.02h.091a6.626,6.626,0,0,0,1.3-.128,2.023,2.023,0,0,0,1.122-.674,3.263,3.263,0,0,0,.674-1.271,7.973,7.973,0,0,0,.253-1.433q.02-.3.02-.607V120.4a5.237,5.237,0,0,0-.04-.654,6.532,6.532,0,0,0-.233-1.392,2.922,2.922,0,0,0-.674-1.21,2.094,2.094,0,0,0-1.122-.674,5.944,5.944,0,0,0-1.3-.142h-.182Z" transform="translate(-88.1 -95.507)" fill="#92278f"/>
      <path id="Path_5" data-name="Path 5" d="M269.12,119.636h7.2v8.6h-6.556a13.565,13.565,0,0,1-2.424-.212,4.753,4.753,0,0,1-2.178-1.038,5.248,5.248,0,0,1-1.685-2.414,9.774,9.774,0,0,1-.526-2.916c0-.212-.017-.421,0-.624s0-.4.03-.607a7.578,7.578,0,0,1,1.867-5.056,6.7,6.7,0,0,1,4.935-1.615l6.556-.02v2.5h-6.576a2.728,2.728,0,0,0-2.8,1.524,8.428,8.428,0,0,0-.634,3.314v.061a7.312,7.312,0,0,0,.634,3.165q.637,1.348,2.8,1.348l3.428-.02V122.2H269.12Z" transform="translate(-174.842 -95.48)" fill="#92278f"/>
      <path id="Path_6" data-name="Path 6" d="M399.157,117.191a3.87,3.87,0,0,0-.927,2.491l8.427-.02v2.521H398.21a6.2,6.2,0,0,0,.172,1.473,2.99,2.99,0,0,0,.694,1.291,1.941,1.941,0,0,0,1.1.674,6.624,6.624,0,0,0,1.3.128h.182l5-.02v2.525H401.52a12.377,12.377,0,0,1-2.36-.222A4.945,4.945,0,0,1,397.013,127a5.249,5.249,0,0,1-1.685-2.413,9.672,9.672,0,0,1-.522-2.916c0-.212-.017-.421,0-.624s0-.4.027-.607a7.578,7.578,0,0,1,1.867-5.056,6.612,6.612,0,0,1,4.908-1.6l5.056-.02v2.521h-5A3.341,3.341,0,0,0,399.157,117.191Z" transform="translate(-262.247 -95.507)" fill="#92278f"/>
      <circle id="Ellipse_1" data-name="Ellipse 1" cx="2.737" cy="2.737" r="2.737" transform="translate(38.876)" fill="#92278f"/>
    </g>
  </g>
</svg>
