<svg xmlns="http://www.w3.org/2000/svg" xmlns:xlink="http://www.w3.org/1999/xlink" width="128" height="128" viewBox="0 0 128 128">
  <defs>
    <filter id="Rectangle_98" x="0" y="0" width="128" height="128" filterUnits="userSpaceOnUse">
      <feOffset dy="3" input="SourceAlpha"/>
      <feGaussianBlur stdDeviation="5" result="blur"/>
      <feFlood flood-opacity="0.161"/>
      <feComposite operator="in" in2="blur"/>
      <feComposite in="SourceGraphic"/>
    </filter>
  </defs>
  <g id="Group_26178" data-name="Group 26178" transform="translate(-1344 -3461)">
    <g id="Group_26176" data-name="Group 26176" transform="translate(1359.332 3473)">
      <g transform="matrix(1, 0, 0, 1, -15.33, -12)" filter="url(#Rectangle_98)">
        <rect id="Rectangle_98-2" data-name="Rectangle 98" width="98" height="98" rx="15" transform="translate(15 12)" fill="#fff"/>
      </g>
    </g>
    <g id="Group_26179" data-name="Group 26179" transform="translate(-305.753 -16.283)">
      <g id="layer1" transform="translate(1693.829 3536.941)">
        <path id="path3723" d="M16.462,1a.588.588,0,0,0-.588.588V2.52a5.844,5.844,0,0,0-.9.372l-.657-.657a.588.588,0,0,0-.831,0L11.818,3.9a.588.588,0,0,0,0,.831l.657.657a5.856,5.856,0,0,0-.374.9h-.93a.588.588,0,0,0-.588.588V9.231a.588.588,0,0,0,.588.588h.93a5.843,5.843,0,0,0,.372.907l-.654.655a.588.588,0,0,0,0,.831l1.663,1.663a.588.588,0,0,0,.831,0l.657-.657a5.849,5.849,0,0,0,.9.377v.928a.588.588,0,0,0,.588.588h2.352a.588.588,0,0,0,.588-.588v-.93a5.82,5.82,0,0,0,.907-.372l.654.654a.588.588,0,0,0,.831,0l1.663-1.663a.588.588,0,0,0,0-.831l-.654-.655a5.848,5.848,0,0,0,.374-.907H24.1a.588.588,0,0,0,.588-.588V6.879a.588.588,0,0,0-.588-.588h-.93a5.847,5.847,0,0,0-.372-.907l.654-.655a.588.588,0,0,0,0-.831L21.794,2.236a.588.588,0,0,0-.831,0l-.657.657a5.861,5.861,0,0,0-.9-.374v-.93A.588.588,0,0,0,18.813,1Zm.588,1.176h1.176V2.9a.588.588,0,0,0,.457.574,4.708,4.708,0,0,1,1.456.6.588.588,0,0,0,.728-.083l.512-.512.831.831-.51.51a.588.588,0,0,0-.083.728,4.708,4.708,0,0,1,.6,1.458.588.588,0,0,0,.574.457h.728V8.643h-.726a.588.588,0,0,0-.574.459,4.692,4.692,0,0,1-.6,1.454.588.588,0,0,0,.083.728l.512.512-.831.831-.51-.51a.588.588,0,0,0-.726-.083,4.71,4.71,0,0,1-1.458.6.588.588,0,0,0-.459.572v.728H17.049v-.726a.588.588,0,0,0-.457-.572,4.708,4.708,0,0,1-1.456-.6.588.588,0,0,0-.728.078l-.512.512-.831-.831.51-.51a.588.588,0,0,0,.083-.726,4.709,4.709,0,0,1-.6-1.458.588.588,0,0,0-.574-.459h-.728V7.465h.726a.588.588,0,0,0,.574-.457,4.691,4.691,0,0,1,.6-1.454.588.588,0,0,0-.083-.73l-.512-.512L13.9,3.48l.51.51a.588.588,0,0,0,.726.085,4.711,4.711,0,0,1,1.458-.6.588.588,0,0,0,.459-.572Zm.588,1.947a3.933,3.933,0,1,0,3.934,3.932A3.942,3.942,0,0,0,17.637,4.123Zm0,1.176a2.757,2.757,0,1,1-2.758,2.756A2.748,2.748,0,0,1,17.637,5.3Zm10.369,7.459a.588.588,0,0,0-.588.588v1.171a6.808,6.808,0,0,0-1.206.494l-.822-.822a.588.588,0,0,0-.831,0l-1.966,1.964a.588.588,0,0,0,0,.831l.827.827a6.809,6.809,0,0,0-.5,1.2H21.753a.588.588,0,0,0-.588.588v2.781a.588.588,0,0,0,.588.588h1.169a6.8,6.8,0,0,0,.494,1.2L22.593,25a.588.588,0,0,0,0,.831l1.966,1.964a.588.588,0,0,0,.831,0l.824-.824a6.8,6.8,0,0,0,1.2.5v1.167a.588.588,0,0,0,.588.588h2.779a.588.588,0,0,0,.588-.588V27.463a6.808,6.808,0,0,0,1.206-.494l.822.822a.588.588,0,0,0,.831,0L36.2,25.828a.588.588,0,0,0,0-.831l-.827-.827a6.809,6.809,0,0,0,.5-1.2h1.169a.588.588,0,0,0,.588-.588V19.6a.588.588,0,0,0-.588-.588H35.87a6.8,6.8,0,0,0-.494-1.2l.822-.824a.588.588,0,0,0,0-.831l-1.966-1.964a.588.588,0,0,0-.831,0l-.824.824a6.81,6.81,0,0,0-1.2-.5V13.346a.588.588,0,0,0-.588-.588Zm.588,1.176h1.6V14.9a.588.588,0,0,0,.457.574,5.674,5.674,0,0,1,1.755.726.588.588,0,0,0,.728-.083l.68-.68,1.134,1.132-.678.68a.588.588,0,0,0-.085.726,5.677,5.677,0,0,1,.721,1.757.588.588,0,0,0,.574.457h.967v1.605h-.965a.588.588,0,0,0-.574.457A5.653,5.653,0,0,1,34.188,24a.588.588,0,0,0,.08.728l.682.682-1.134,1.132-.678-.678a.588.588,0,0,0-.728-.083,5.662,5.662,0,0,1-1.755.721.588.588,0,0,0-.459.572v.967h-1.6V27.08a.588.588,0,0,0-.457-.572,5.674,5.674,0,0,1-1.755-.726.588.588,0,0,0-.728.083l-.68.68L23.84,25.412l.678-.68a.588.588,0,0,0,.085-.726,5.676,5.676,0,0,1-.721-1.757.588.588,0,0,0-.574-.457h-.967V20.188h.965a.588.588,0,0,0,.574-.457,5.653,5.653,0,0,1,.723-1.752.588.588,0,0,0-.08-.728l-.682-.682,1.134-1.132.678.678a.588.588,0,0,0,.728.083,5.659,5.659,0,0,1,1.755-.721.588.588,0,0,0,.459-.574ZM8.766,16.286a.588.588,0,0,0-.588.588v1.649a8.732,8.732,0,0,0-1.8.74L5.215,18.1a.588.588,0,0,0-.831,0l-2.568,2.57a.588.588,0,0,0,0,.831l1.162,1.162a8.731,8.731,0,0,0-.746,1.8H.588A.588.588,0,0,0,0,25.052v3.635a.588.588,0,0,0,.588.588H2.237a8.735,8.735,0,0,0,.737,1.8l-1.157,1.16a.588.588,0,0,0,0,.831l2.568,2.57a.588.588,0,0,0,.831,0L6.38,34.474a8.742,8.742,0,0,0,1.8.744v1.644a.588.588,0,0,0,.588.588H12.4a.588.588,0,0,0,.588-.588V35.216a8.73,8.73,0,0,0,1.8-.739l1.16,1.16a.588.588,0,0,0,.831,0l2.568-2.57a.588.588,0,0,0,0-.831l-1.162-1.162a8.737,8.737,0,0,0,.746-1.8h1.644a.588.588,0,0,0,.588-.588V25.052a.588.588,0,0,0-.588-.588H18.928a8.736,8.736,0,0,0-.737-1.8l1.157-1.16a.588.588,0,0,0,0-.831L16.781,18.1a.588.588,0,0,0-.831,0l-1.164,1.162a8.735,8.735,0,0,0-1.8-.744V16.874a.588.588,0,0,0-.588-.588Zm20.63.163a4.541,4.541,0,1,0,4.54,4.54A4.549,4.549,0,0,0,29.4,16.449ZM9.354,17.462h2.457V18.9a.588.588,0,0,0,.457.574,7.592,7.592,0,0,1,2.349.971.588.588,0,0,0,.728-.083l1.02-1.017L18.1,21.088,17.088,22.1a.588.588,0,0,0-.085.726,7.589,7.589,0,0,1,.967,2.352.588.588,0,0,0,.572.459h1.447V28.1H18.547a.588.588,0,0,0-.574.457A7.6,7.6,0,0,1,17,30.906a.588.588,0,0,0,.083.728L18.1,32.651l-1.736,1.738L15.35,33.374a.588.588,0,0,0-.728-.083,7.586,7.586,0,0,1-2.352.965.588.588,0,0,0-.459.574v1.445H9.354V34.833a.588.588,0,0,0-.457-.572,7.592,7.592,0,0,1-2.349-.971.588.588,0,0,0-.728.08L4.8,34.389,3.064,32.651l1.013-1.015a.588.588,0,0,0,.085-.726,7.59,7.59,0,0,1-.967-2.352.588.588,0,0,0-.572-.459H1.176V25.64H2.618a.588.588,0,0,0,.574-.457,7.592,7.592,0,0,1,.971-2.349.588.588,0,0,0-.083-.728L3.064,21.088,4.8,19.349l1.015,1.015a.588.588,0,0,0,.728.083,7.584,7.584,0,0,1,2.352-.965.588.588,0,0,0,.459-.574Zm20.042.163a3.366,3.366,0,1,1-3.364,3.364A3.355,3.355,0,0,1,29.4,17.625ZM10.582,21.111a5.757,5.757,0,1,0,5.757,5.757A5.766,5.766,0,0,0,10.582,21.111Zm0,1.176A4.582,4.582,0,1,1,6,26.868,4.573,4.573,0,0,1,10.582,22.287Z" transform="translate(0 -1)"/>
      </g>
      <path id="Subtraction_1" data-name="Subtraction 1" d="M14.626,48.461H6.452a.588.588,0,0,1-.588-.588v-17H.574a.579.579,0,0,1-.514-.326.589.589,0,0,1,.06-.616L11.846,14.688a.587.587,0,0,1,.932,0L24.5,29.93a.583.583,0,0,1-.45.942H18.76v4.994a15.765,15.765,0,0,0-1.171,2.2V30.29a.586.586,0,0,1,.583-.588h4.671L12.311,16.007,1.777,29.7H6.452a.579.579,0,0,1,.582.588v17H16.5c-.337.2-1.029.617-1.878,1.174Zm32-5.6H32.919c.121-.5.223-.992.3-1.475H45.887V19.954a.738.738,0,0,1,.738-.736h5.887L39.234,1.955,25.955,19.218h5.887a.729.729,0,0,1,.738.736V36.281a10.869,10.869,0,0,0-1.474-2.594V20.692H24.453a.737.737,0,0,1-.583-1.19L38.65.288A.728.728,0,0,1,39.234,0a.75.75,0,0,1,.588.288L54.6,19.5a.736.736,0,0,1-.581,1.19H47.361V42.121A.738.738,0,0,1,46.625,42.859Z" transform="translate(1686.198 3503.646)"/>
    </g>
  </g>
</svg>
