<svg xmlns="http://www.w3.org/2000/svg" width="79.935" height="79.96" viewBox="0 0 79.935 79.96">
  <g id="Icon_ionic-ios-quote" data-name="Icon ionic-ios-quote" transform="translate(0)">
    <path id="Path_23307" data-name="Path 23307" d="M34.977,6.75H18.74A12.026,12.026,0,0,0,6.75,18.74V50.714A12.026,12.026,0,0,0,18.74,62.7h9.667a2.01,2.01,0,0,1,2,2.148,30.469,30.469,0,0,1-7.819,18.51,2,2,0,0,0,1.474,3.347h9.967a1.941,1.941,0,0,0,1.574-.774c1.848-2.4,7.119-10.392,7.119-23.456V14.519A7.572,7.572,0,0,0,34.977,6.75Z" transform="translate(-6.75 -6.75)" fill="#0a66c2"/>
    <path id="Path_23308" data-name="Path 23308" d="M47.352,6.75H31.115a12.026,12.026,0,0,0-11.99,11.99V50.714A12.026,12.026,0,0,0,31.115,62.7h9.667a2.01,2.01,0,0,1,2,2.148,30.469,30.469,0,0,1-7.819,18.51,2,2,0,0,0,1.474,3.347H46.4a1.941,1.941,0,0,0,1.574-.774c1.849-2.4,7.119-10.392,7.119-23.456V14.519A7.572,7.572,0,0,0,47.352,6.75Z" transform="translate(24.84 -6.75)" fill="#0a66c2"/>
  </g>
</svg>
