<svg xmlns="http://www.w3.org/2000/svg" xmlns:xlink="http://www.w3.org/1999/xlink" width="128" height="128" viewBox="0 0 128 128">
  <defs>
    <filter id="Rectangle_98" x="0" y="0" width="128" height="128" filterUnits="userSpaceOnUse">
      <feOffset dy="3" input="SourceAlpha"/>
      <feGaussianBlur stdDeviation="5" result="blur"/>
      <feFlood flood-opacity="0.161"/>
      <feComposite operator="in" in2="blur"/>
      <feComposite in="SourceGraphic"/>
    </filter>
  </defs>
  <g id="Group_25989" data-name="Group 25989" transform="translate(15.332 12)">
    <g transform="matrix(1, 0, 0, 1, -15.33, -12)" filter="url(#Rectangle_98)">
      <rect id="Rectangle_98-2" data-name="Rectangle 98" width="98" height="98" rx="15" transform="translate(15 12)" fill="#fff"/>
    </g>
    <g id="Outline" transform="translate(20.998 21.996)">
      <path id="Path_23405" data-name="Path 23405" d="M37.5,30.837A2.5,2.5,0,0,0,35.154,32.5H30V31.67a.833.833,0,0,0-.833-.833H25.833A.833.833,0,0,0,25,31.67V32.5H19.845a2.5,2.5,0,1,0,0,1.667h2.743a8.691,8.691,0,0,0-3.208,5H18.332A.833.833,0,0,0,17.5,40v3.334a.833.833,0,0,0,.833.833h3.334a.833.833,0,0,0,.833-.833V40a.833.833,0,0,0-.833-.833H21.1A6.9,6.9,0,0,1,25,34.681V35a.833.833,0,0,0,.833.833h3.334A.833.833,0,0,0,30,35v-.323a6.9,6.9,0,0,1,3.9,4.491h-.563A.833.833,0,0,0,32.5,40v3.334a.833.833,0,0,0,.833.833h3.334a.833.833,0,0,0,.833-.833V40a.833.833,0,0,0-.833-.833H35.619a8.691,8.691,0,0,0-3.208-5h2.743A2.5,2.5,0,1,0,37.5,30.837Zm-20,3.334a.833.833,0,1,1,.833-.833A.833.833,0,0,1,17.5,34.17Zm3.334,8.335H19.165V40.838h1.667Zm7.5-8.335H26.666V32.5h1.667Zm5.834,6.668h1.667v1.667H34.168ZM37.5,34.17a.833.833,0,1,1,.833-.833A.833.833,0,0,1,37.5,34.17ZM20,10a3.334,3.334,0,0,0-3.334,3.334v5.834a.833.833,0,0,0,1.667,0v-2.5h3.334v2.5a.833.833,0,1,0,1.667,0V13.334A3.334,3.334,0,0,0,20,10Zm1.667,5H18.332V13.334a1.667,1.667,0,1,1,3.334,0Zm9.168-3.334a.833.833,0,1,0,0-1.667h-5a.833.833,0,1,0,0,1.667H27.5v6.668H25.833a.833.833,0,1,0,0,1.667h5a.833.833,0,1,0,0-1.667H29.167V11.667Z" transform="translate(-1.497 -1.332)"/>
      <ellipse id="Ellipse_34" data-name="Ellipse 34" cx="0.5" cy="1" rx="0.5" ry="1" transform="translate(44.67 35.004)"/>
      <path id="Path_23406" data-name="Path 23406" d="M48.507,2H10.167a.833.833,0,0,0-.833.833v2.5h-2.5A.833.833,0,0,0,6,6.167V51.174a.833.833,0,0,0,.833.833H45.173a.833.833,0,0,0,.833-.833v-2.5h2.5a.833.833,0,0,0,.833-.833V2.833A.833.833,0,0,0,48.507,2ZM7.667,7H36v5.834a2.5,2.5,0,0,0,2.5,2.5h5.834v5H7.667Zm30,5.834V8.179l5.489,5.489H38.505A.833.833,0,0,1,37.672,12.835Zm10,34.172H46.006v-7.5a.833.833,0,0,0-1.667,0V50.341H7.667V22H44.339V32.838a.833.833,0,1,0,1.667,0V14.5a.833.833,0,0,0-.244-.589L37.427,5.578a.833.833,0,0,0-.589-.244H11V3.667H47.673Z"/>
    </g>
  </g>
</svg>
