<svg xmlns="http://www.w3.org/2000/svg" xmlns:xlink="http://www.w3.org/1999/xlink" width="128" height="128" viewBox="0 0 128 128">
  <defs>
    <filter id="Rectangle_97" x="0" y="0" width="128" height="128" filterUnits="userSpaceOnUse">
      <feOffset dy="3" input="SourceAlpha"/>
      <feGaussianBlur stdDeviation="5" result="blur"/>
      <feFlood flood-opacity="0.161"/>
      <feComposite operator="in" in2="blur"/>
      <feComposite in="SourceGraphic"/>
    </filter>
  </defs>
  <g id="Group_25988" data-name="Group 25988" transform="translate(14.715 12)">
    <g transform="matrix(1, 0, 0, 1, -14.71, -12)" filter="url(#Rectangle_97)">
      <rect id="Rectangle_97-2" data-name="Rectangle 97" width="98" height="98" rx="15" transform="translate(15 12)" fill="#fff"/>
    </g>
    <g id="Layer_27" data-name="Layer 27" transform="translate(23.763 23.484)">
      <rect id="Rectangle_192" data-name="Rectangle 192" width="48" height="30" transform="translate(1.522 19.515)" fill="none" stroke="#000" stroke-linejoin="round" stroke-width="1.5"/>
      <line id="Line_22" data-name="Line 22" x2="48" transform="translate(1.522 25.515)" fill="none" stroke="#000" stroke-linejoin="round" stroke-width="1.5"/>
      <line id="Line_23" data-name="Line 23" x2="1" transform="translate(5.522 22.515)" fill="none" stroke="#000" stroke-linejoin="round" stroke-width="1.5"/>
      <line id="Line_24" data-name="Line 24" x2="1" transform="translate(8.522 22.515)" fill="none" stroke="#000" stroke-linejoin="round" stroke-width="1.5"/>
      <line id="Line_25" data-name="Line 25" x2="1" transform="translate(11.522 22.515)" fill="none" stroke="#000" stroke-linejoin="round" stroke-width="1.5"/>
      <line id="Line_26" data-name="Line 26" x2="2" transform="translate(14.522 22.515)" fill="none" stroke="#000" stroke-linejoin="round" stroke-width="1.5"/>
      <line id="Line_27" data-name="Line 27" x2="13" transform="translate(34.522 22.515)" fill="none" stroke="#000" stroke-linejoin="round" stroke-width="1.5"/>
      <path id="Path_23402" data-name="Path 23402" d="M47.852,19.248a7.057,7.057,0,0,0-10.569-9.142,6.272,6.272,0,0,0-9.918-4.579,7.841,7.841,0,0,0-13.1,0,5.488,5.488,0,0,0-7.5,4.312H6.7a4.7,4.7,0,1,0,0,9.409m35.283-7.841a3.92,3.92,0,0,1,3.92,3.92m-39.2.784a1.568,1.568,0,1,1,0-3.136" transform="translate(0 0)" fill="none" stroke="#000" stroke-linejoin="round" stroke-width="1.5"/>
      <path id="Path_23403" data-name="Path 23403" d="M9,52.465,15.272,36l6.272,16.465" transform="translate(-1.512 -7.343)" fill="none" stroke="#000" stroke-linejoin="round" stroke-width="1.5"/>
      <line id="Line_28" data-name="Line 28" x2="8" transform="translate(9.522 39.515)" fill="none" stroke="#000" stroke-linejoin="round" stroke-width="1.5"/>
      <path id="Path_23404" data-name="Path 23404" d="M29,52.681V37h8.625v6.272H29" transform="translate(-5.83 -7.559)" fill="none" stroke="#000" stroke-linejoin="round" stroke-width="1.5"/>
      <line id="Line_29" data-name="Line 29" x2="7" transform="translate(34.522 29.515)" fill="none" stroke="#000" stroke-linejoin="round" stroke-width="1.5"/>
      <line id="Line_30" data-name="Line 30" y2="15" transform="translate(38.522 29.515)" fill="none" stroke="#000" stroke-linejoin="round" stroke-width="1.5"/>
      <line id="Line_31" data-name="Line 31" x2="7" transform="translate(34.522 44.515)" fill="none" stroke="#000" stroke-linejoin="round" stroke-width="1.5"/>
    </g>
  </g>
</svg>
