<svg xmlns="http://www.w3.org/2000/svg" xmlns:xlink="http://www.w3.org/1999/xlink" width="160" height="160" viewBox="0 0 160 160">
  <defs>
    <filter id="Rectangle_95" x="0" y="0" width="160" height="160" filterUnits="userSpaceOnUse">
      <feOffset dy="3" input="SourceAlpha"/>
      <feGaussianBlur stdDeviation="5" result="blur"/>
      <feFlood flood-opacity="0.161"/>
      <feComposite operator="in" in2="blur"/>
      <feComposite in="SourceGraphic"/>
    </filter>
  </defs>
  <g id="Group_26089" data-name="Group 26089" transform="translate(-385 -2052)">
    <g transform="matrix(1, 0, 0, 1, 385, 2052)" filter="url(#Rectangle_95)">
      <rect id="Rectangle_95-2" data-name="Rectangle 95" width="130" height="130" rx="15" transform="translate(15 12)" fill="#0a66c2"/>
    </g>
    <path id="Path_23390" data-name="Path 23390" d="M71.386,55.41a8.286,8.286,0,0,0,3-6.314,8.1,8.1,0,0,0-16.19,0,8.286,8.286,0,0,0,3,6.314,9.66,9.66,0,0,0-4.614,7.529l-12.952-9.8V42.619H50.1A1.624,1.624,0,0,0,51.714,41V29.667A9.728,9.728,0,0,0,47.1,21.41a8.286,8.286,0,0,0,3-6.314,8.1,8.1,0,0,0-16.19,0,8.286,8.286,0,0,0,3,6.314,9.728,9.728,0,0,0-4.614,8.257V41A1.624,1.624,0,0,0,33.9,42.619h6.476V53.143L27.429,62.857a9.79,9.79,0,0,0-4.614-7.529,7.993,7.993,0,0,0,3-6.233,8.1,8.1,0,0,0-16.19,0,8.286,8.286,0,0,0,3,6.314A9.728,9.728,0,0,0,8,63.667V75a1.624,1.624,0,0,0,1.619,1.619H25.81A1.624,1.624,0,0,0,27.429,75V66.9L42,55.976,56.571,66.9V75a1.624,1.624,0,0,0,1.619,1.619h16.19A1.624,1.624,0,0,0,76,75V63.667A9.728,9.728,0,0,0,71.386,55.41ZM17.714,44.238A4.857,4.857,0,1,1,12.857,49.1,4.871,4.871,0,0,1,17.714,44.238ZM24.19,73.381H11.238V63.667a6.476,6.476,0,1,1,12.952,0ZM42,10.238A4.857,4.857,0,1,1,37.143,15.1,4.871,4.871,0,0,1,42,10.238ZM35.524,39.381V29.667a6.476,6.476,0,1,1,12.952,0v9.714Zm30.762,4.857A4.857,4.857,0,1,1,61.429,49.1,4.871,4.871,0,0,1,66.286,44.238Zm6.476,29.143H59.81V63.667a6.476,6.476,0,1,1,12.952,0Z" transform="translate(423 2087)" fill="#fff"/>
  </g>
</svg>
